<mxfile host="65bd71144e">
    <diagram id="Sb-HFIdk05NlX5UYdrRc" name="PÃ¡gina-1">
        <mxGraphModel dx="564" dy="478" grid="1" gridSize="10" guides="1" tooltips="1" connect="1" arrows="1" fold="1" page="1" pageScale="1" pageWidth="827" pageHeight="1169" math="0" shadow="0">
            <root>
                <mxCell id="0"/>
                <mxCell id="1" parent="0"/>
                <mxCell id="6" value="" style="edgeStyle=none;html=1;" edge="1" parent="1" source="2" target="5">
                    <mxGeometry relative="1" as="geometry"/>
                </mxCell>
                <mxCell id="2" value="inicio" style="ellipse;whiteSpace=wrap;html=1;fillColor=#e3c800;fontColor=#000000;strokeColor=#B09500;" parent="1" vertex="1">
                    <mxGeometry x="240" y="20" width="120" height="80" as="geometry"/>
                </mxCell>
                <mxCell id="8" value="" style="edgeStyle=none;html=1;" edge="1" parent="1" source="5" target="7">
                    <mxGeometry relative="1" as="geometry"/>
                </mxCell>
                <mxCell id="5" value="x" style="shape=parallelogram;perimeter=parallelogramPerimeter;whiteSpace=wrap;html=1;fixedSize=1;fillColor=#a20025;fontColor=#ffffff;strokeColor=#6F0000;" vertex="1" parent="1">
                    <mxGeometry x="240" y="140" width="120" height="60" as="geometry"/>
                </mxCell>
                <mxCell id="10" value="" style="edgeStyle=none;html=1;" edge="1" parent="1" source="7" target="9">
                    <mxGeometry relative="1" as="geometry"/>
                </mxCell>
                <mxCell id="7" value="&#10;&#10;&lt;p class=&quot;selectable-text copyable-text&quot;&gt;&lt;span class=&quot;selectable-text copyable-text&quot;&gt;C1 = x * 15/100&lt;/span&gt;&lt;/p&gt;&lt;p class=&quot;selectable-text copyable-text&quot;&gt;&lt;span class=&quot;selectable-text copyable-text&quot;&gt;C2 = x * 20/100&lt;/span&gt;&lt;/p&gt;&lt;p class=&quot;selectable-text copyable-text&quot;&gt;&lt;span class=&quot;selectable-text copyable-text&quot;&gt;P1 = x * 10/100&lt;/span&gt;&lt;/p&gt;&lt;p class=&quot;selectable-text copyable-text&quot;&gt;&lt;span class=&quot;selectable-text copyable-text&quot;&gt;P2 = x * 5/100&lt;/span&gt;&lt;/p&gt;&#10;&#10;" style="whiteSpace=wrap;html=1;fillColor=#1ba1e2;fontColor=#ffffff;strokeColor=#006EAF;" vertex="1" parent="1">
                    <mxGeometry x="230" y="250" width="140" height="120" as="geometry"/>
                </mxCell>
                <mxCell id="12" value="" style="edgeStyle=none;html=1;" edge="1" parent="1" source="9" target="11">
                    <mxGeometry relative="1" as="geometry"/>
                </mxCell>
                <mxCell id="9" value="c1.c2.p1.p2" style="shape=document;whiteSpace=wrap;html=1;boundedLbl=1;fillColor=#6a00ff;fontColor=#ffffff;strokeColor=#3700CC;" vertex="1" parent="1">
                    <mxGeometry x="240" y="420" width="120" height="80" as="geometry"/>
                </mxCell>
                <mxCell id="11" value="fin&lt;br&gt;" style="ellipse;whiteSpace=wrap;html=1;fillColor=#60a917;fontColor=#ffffff;strokeColor=#2D7600;" vertex="1" parent="1">
                    <mxGeometry x="240" y="540" width="120" height="60" as="geometry"/>
                </mxCell>
            </root>
        </mxGraphModel>
    </diagram>
</mxfile>